<?xml version="1.0" encoding="utf-8"?>
<!-- Generator: Adobe Illustrator 21.0.0, SVG Export Plug-In . SVG Version: 6.00 Build 0)  -->
<svg version="1.1" id="Layer_1" xmlns="http://www.w3.org/2000/svg" xmlns:xlink="http://www.w3.org/1999/xlink" x="0px" y="0px"
	 viewBox="0 0 512 512" style="enable-background:new 0 0 512 512;" xml:space="preserve">
<style type="text/css">
	.st0{fill:url(#SVGID_1_);}
	.st1{opacity:8.000000e-02;}
	.st2{fill:url(#SVGID_2_);}
</style>
<linearGradient id="SVGID_1_" gradientUnits="userSpaceOnUse" x1="194.3578" y1="512" x2="194.3578" y2="358.875">
	<stop  offset="0" style="stop-color:#EAA0A2"/>
	<stop  offset="1" style="stop-color:#FFDBDC"/>
</linearGradient>
<path class="st0" d="M196.4,512c-1.5,0-3-0.2-4.5-0.7c-5.3-1.7-9.3-6.1-10.3-11.6l-7.9-43.6l-43.6-7.9c-5.5-1-10-5-11.6-10.3
	c-1.7-5.3-0.2-11.1,3.7-15.1l59.5-59.5c5.9-5.9,15.4-5.9,21.2,0l63.6,63.6c5.9,5.9,5.9,15.4,0,21.2L207,507.6
	C204.2,510.5,200.4,512,196.4,512z"/>
<path class="st1" d="M196.4,512c-1.5,0-3-0.2-4.5-0.7c-5.3-1.7-9.3-6.1-10.3-11.6l-7.9-43.6l-43.6-7.9c-5.5-1-10-5-11.6-10.3
	c-1.7-5.3-0.2-11.1,3.7-15.1l59.5-59.5c5.9-5.9,15.4-5.9,21.2,0l63.6,63.6c5.9,5.9,5.9,15.4,0,21.2L207,507.6
	C204.2,510.5,200.4,512,196.4,512z"/>
<linearGradient id="SVGID_2_" gradientUnits="userSpaceOnUse" x1="255.9203" y1="512" x2="255.9203" y2="-9.094947e-13">
	<stop  offset="0" style="stop-color:#EAA0A2"/>
	<stop  offset="1" style="stop-color:#FFDBDC"/>
</linearGradient>
<path class="st2" d="M340.8,373.9l49.5-49.5c35.8-35.8,55.6-83.6,55.6-134.4c0-50.8-19.7-98.5-55.6-134.3
	C354.4,19.8,306.7,0,255.9,0s-98.5,19.8-134.3,55.7C85.7,91.5,66,139.2,66,190c0,50.8,19.7,98.5,55.6,134.4l59.8,59.8
	c0.1,0.1,0.2,0.2,0.2,0.3l123.1,123.1c2.9,2.9,6.7,4.4,10.6,4.4c1.5,0,3-0.2,4.5-0.7c5.3-1.7,9.3-6.1,10.3-11.6l7.9-43.6l43.6-7.9
	c5.5-1,10-5,11.6-10.3s0.2-11.1-3.7-15.1L340.8,373.9z M255.9,289l-49.5-49.5C193.2,226.3,186,208.7,186,190
	c0-18.7,7.3-36.3,20.5-49.5c13.2-13.2,30.8-20.5,49.5-20.5c9.3,0,18.3,1.8,26.8,5.3c8.5,3.5,16.1,8.6,22.7,15.2
	c13.2,13.2,20.5,30.8,20.5,49.5c0,18.7-7.3,36.3-20.5,49.5L255.9,289z"/>
<path class="st1" d="M277.1,267.8L255.9,289l84.8,84.9l21.2-21.2L277.1,267.8z"/>
</svg>
